<svg width="152" height="48" viewBox="0 0 152 48" fill="none" xmlns="http://www.w3.org/2000/svg">
<path fill-rule="evenodd" clip-rule="evenodd" d="M6.86535 26.2404L13.9516 34.3415C14.4408 34.9007 15.2931 34.916 15.8551 34.3756L23.9968 26.5472C24.5588 26.0067 24.6179 25.1153 24.1287 24.556L17.0424 16.455C16.5532 15.8957 15.701 15.8805 15.1389 16.4209L6.99728 24.2493C6.43521 24.7897 6.37615 25.6812 6.86535 26.2404ZM10.8985 37.2771C12.8553 39.5142 16.2642 39.5752 18.5125 37.4134L26.6541 29.5851C28.9024 27.4233 29.1386 23.8574 27.1818 21.6204L20.0955 13.5193C18.1387 11.2823 14.7298 11.2213 12.4816 13.383L4.33992 21.2114C2.09167 23.3731 1.85542 26.9391 3.81224 29.1761L10.8985 37.2771Z" fill="#2DBB7B"/>
<path fill-rule="evenodd" clip-rule="evenodd" d="M20.752 25.1417L29.6098 35.268C30.099 35.8273 30.9513 35.8425 31.5133 35.3021L41.6904 25.5166C42.2524 24.9762 42.3115 24.0847 41.8223 23.5254L32.9644 13.3991C32.4752 12.8399 31.623 12.8246 31.061 13.3651L20.8839 23.1505C20.3218 23.691 20.2628 24.5824 20.752 25.1417ZM26.5567 38.2036C28.5135 40.4407 31.9224 40.5017 34.1707 38.34L44.3477 28.5545C46.596 26.3927 46.8322 22.8268 44.8754 20.5898L36.0176 10.4635C34.0607 8.22645 30.6519 8.16542 28.4036 10.3272L18.2266 20.1126C15.9783 22.2744 15.7421 25.8403 17.6989 28.0773L26.5567 38.2036Z" fill="#2EA66F"/>
<path fill-rule="evenodd" clip-rule="evenodd" d="M34.6401 24.0432L45.2695 36.1948C45.7587 36.754 46.6109 36.7693 47.173 36.2288L59.3854 24.4863C59.9475 23.9458 60.0066 23.0543 59.5174 22.4951L48.888 10.3435C48.3988 9.78428 47.5465 9.76902 46.9845 10.3095L34.772 22.052C34.2099 22.5925 34.1509 23.4839 34.6401 24.0432ZM42.2164 39.1304C44.1732 41.3674 47.5821 41.4285 49.8303 39.2667L62.0428 27.5241C64.291 25.3624 64.5273 21.7965 62.5705 19.5594L51.9411 7.4079C49.9842 5.17086 46.5754 5.10983 44.3271 7.27157L32.1147 19.0141C29.8664 21.1759 29.6302 24.7418 31.587 26.9788L42.2164 39.1304Z" fill="#1B8354"/>
<path d="M86.1632 34.36C84.3232 34.36 82.7632 34.05 81.4832 33.43C80.2032 32.79 79.1132 31.97 78.2132 30.97L81.2132 27.94C82.6332 29.54 84.3832 30.34 86.4632 30.34C87.5832 30.34 88.4132 30.11 88.9532 29.65C89.4932 29.19 89.7632 28.58 89.7632 27.82C89.7632 27.24 89.6032 26.76 89.2832 26.38C88.9632 25.98 88.3132 25.71 87.3332 25.57L85.2632 25.3C83.0432 25.02 81.4132 24.35 80.3732 23.29C79.3532 22.23 78.8432 20.82 78.8432 19.06C78.8432 18.12 79.0232 17.26 79.3832 16.48C79.7432 15.7 80.2532 15.03 80.9132 14.47C81.5932 13.91 82.4132 13.48 83.3732 13.18C84.3532 12.86 85.4632 12.7 86.7032 12.7C88.2832 12.7 89.6732 12.95 90.8732 13.45C92.0732 13.95 93.1032 14.68 93.9632 15.64L90.9332 18.7C90.4332 18.12 89.8232 17.65 89.1032 17.29C88.4032 16.91 87.5132 16.72 86.4332 16.72C85.4132 16.72 84.6532 16.9 84.1532 17.26C83.6532 17.62 83.4032 18.12 83.4032 18.76C83.4032 19.48 83.5932 20 83.9732 20.32C84.3732 20.64 85.0132 20.87 85.8932 21.01L87.9632 21.34C90.1232 21.68 91.7232 22.35 92.7632 23.35C93.8032 24.33 94.3232 25.73 94.3232 27.55C94.3232 28.55 94.1432 29.47 93.7832 30.31C93.4232 31.15 92.8932 31.87 92.1932 32.47C91.5132 33.07 90.6632 33.54 89.6432 33.88C88.6232 34.2 87.4632 34.36 86.1632 34.36ZM96.3639 18.25H100.654L102.184 24.61L103.264 29.41H103.384L104.644 24.61L106.444 18.25H110.494L112.324 24.61L113.614 29.41H113.734L114.814 24.61L116.344 18.25H120.454L116.104 34H111.454L109.534 27.34L108.424 23.26H108.334L107.254 27.34L105.334 34H100.774L96.3639 18.25ZM125.309 16.57C124.409 16.57 123.749 16.37 123.329 15.97C122.929 15.55 122.729 15.02 122.729 14.38V13.72C122.729 13.08 122.929 12.56 123.329 12.16C123.749 11.74 124.409 11.53 125.309 11.53C126.209 11.53 126.859 11.74 127.259 12.16C127.679 12.56 127.889 13.08 127.889 13.72V14.38C127.889 15.02 127.679 15.55 127.259 15.97C126.859 16.37 126.209 16.57 125.309 16.57ZM123.089 18.25H127.529V34H123.089V18.25ZM132.453 21.7H130.233V18.25H132.453V16.39C132.453 14.87 132.853 13.73 133.653 12.97C134.453 12.19 135.623 11.8 137.163 11.8H140.043V15.25H136.893V18.25H140.043V21.7H136.893V34H132.453V21.7ZM148.032 34C146.492 34 145.322 33.61 144.522 32.83C143.742 32.05 143.352 30.91 143.352 29.41V21.7H141.132V18.25H142.242C142.842 18.25 143.252 18.11 143.472 17.83C143.692 17.53 143.802 17.11 143.802 16.57V13.99H147.792V18.25H150.912V21.7H147.792V30.55H150.672V34H148.032Z" fill="#181D27"/>
</svg>
