<svg width="513" height="168" viewBox="0 0 513 168" fill="none" xmlns="http://www.w3.org/2000/svg">
<path fill-rule="evenodd" clip-rule="evenodd" d="M24.195 91.8121L48.9037 120.059C50.6095 122.009 53.581 122.062 55.5408 120.178L83.9294 92.8816C85.8893 90.9972 86.0952 87.8887 84.3894 85.9387L59.6807 57.6916C57.9749 55.7416 55.0034 55.6884 53.0435 57.5728L24.6549 84.8691C22.6951 86.7536 22.4892 89.862 24.195 91.8121ZM38.2579 130.295C45.0811 138.095 56.9673 138.308 64.8066 130.771L93.1952 103.474C101.035 95.9365 101.858 83.5027 95.0352 75.7025L70.3264 47.4555C63.5033 39.6553 51.6171 39.4425 43.7778 46.9802L15.3892 74.2765C7.54988 81.8142 6.72611 94.248 13.5492 102.048L38.2579 130.295Z" fill="#32DD90"/>
<path fill-rule="evenodd" clip-rule="evenodd" d="M72.6152 87.981L103.501 123.29C105.207 125.24 108.178 125.293 110.138 123.409L145.624 89.2882C147.584 87.4038 147.79 84.2953 146.084 82.3453L115.198 47.0365C113.492 45.0865 110.521 45.0333 108.561 46.9177L73.0752 81.0381C71.1154 82.9225 70.9094 86.031 72.6152 87.981ZM92.8554 133.526C99.6785 141.326 111.565 141.539 119.404 134.001L154.89 99.8808C162.729 92.3432 163.553 79.9094 156.73 72.1092L125.844 36.8004C119.021 29.0002 107.134 28.7874 99.2952 36.3251L63.8094 70.4455C55.9701 77.9831 55.1463 90.4169 61.9695 98.2171L92.8554 133.526Z" fill="#3DC688"/>
<path fill-rule="evenodd" clip-rule="evenodd" d="M121.041 84.1507L158.104 126.521C159.81 128.471 162.781 128.524 164.741 126.64L207.324 85.6956C209.284 83.8112 209.49 80.7027 207.784 78.7527L170.721 36.3821C169.015 34.4321 166.044 34.3789 164.084 36.2633L121.501 77.2078C119.541 79.0922 119.335 82.2007 121.041 84.1507ZM147.458 136.757C154.281 144.558 166.168 144.77 174.007 137.233L216.59 96.2882C224.429 88.7505 225.253 76.3167 218.43 68.5165L181.367 26.146C174.543 18.3458 162.657 18.133 154.818 25.6707L112.235 66.6152C104.396 74.1528 103.572 86.5866 110.395 94.3868L147.458 136.757Z" fill="#30B277"/>
<path d="M299.11 118.7C293.11 118.7 288.01 117.634 283.81 115.5C279.677 113.367 276.11 110.567 273.11 107.1L282.01 98.5002C284.41 101.3 287.077 103.434 290.01 104.9C293.01 106.367 296.31 107.1 299.91 107.1C303.977 107.1 307.044 106.234 309.11 104.5C311.177 102.7 312.21 100.3 312.21 97.3002C312.21 94.9669 311.544 93.0669 310.21 91.6002C308.877 90.1336 306.377 89.0669 302.71 88.4002L296.11 87.4002C282.177 85.2002 275.21 78.4336 275.21 67.1002C275.21 63.9669 275.777 61.1336 276.91 58.6002C278.11 56.0669 279.81 53.9002 282.01 52.1002C284.21 50.3002 286.844 48.9336 289.91 48.0002C293.044 47.0002 296.577 46.5002 300.51 46.5002C305.777 46.5002 310.377 47.3669 314.31 49.1002C318.244 50.8336 321.61 53.4002 324.41 56.8002L315.41 65.3002C313.677 63.1669 311.577 61.4336 309.11 60.1002C306.644 58.7669 303.544 58.1002 299.81 58.1002C296.01 58.1002 293.144 58.8336 291.21 60.3002C289.344 61.7002 288.41 63.7002 288.41 66.3002C288.41 68.9669 289.177 70.9336 290.71 72.2002C292.244 73.4669 294.71 74.4002 298.11 75.0002L304.61 76.2002C311.677 77.4669 316.877 79.7336 320.21 83.0002C323.61 86.2002 325.31 90.7002 325.31 96.5002C325.31 99.8336 324.71 102.867 323.51 105.6C322.377 108.267 320.677 110.6 318.41 112.6C316.21 114.534 313.477 116.034 310.21 117.1C307.01 118.167 303.31 118.7 299.11 118.7ZM332.643 65.3002H344.943L350.243 86.8002L354.343 104.7H354.743L359.543 86.8002L365.643 65.3002H377.243L383.543 86.8002L388.443 104.7H388.843L392.943 86.8002L398.143 65.3002H410.043L395.743 117.5H381.943L375.243 94.5002L371.343 80.3002H371.043L367.243 94.5002L360.643 117.5H347.043L332.643 65.3002ZM426.077 57.7002C423.41 57.7002 421.477 57.1002 420.277 55.9002C419.143 54.7002 418.577 53.1669 418.577 51.3002V49.3002C418.577 47.4336 419.143 45.9002 420.277 44.7002C421.477 43.5002 423.41 42.9002 426.077 42.9002C428.677 42.9002 430.577 43.5002 431.777 44.7002C432.977 45.9002 433.577 47.4336 433.577 49.3002V51.3002C433.577 53.1669 432.977 54.7002 431.777 55.9002C430.577 57.1002 428.677 57.7002 426.077 57.7002ZM419.677 65.3002H432.477V117.5H419.677V65.3002ZM449.913 75.4002H442.213V65.3002H449.913V57.8002C449.913 53.2002 451.113 49.6669 453.513 47.2002C455.98 44.7336 459.58 43.5002 464.313 43.5002H473.413V53.7002H462.713V65.3002H473.413V75.4002H462.713V117.5H449.913V75.4002ZM498.574 117.5C494.174 117.5 490.808 116.367 488.474 114.1C486.208 111.767 485.074 108.467 485.074 104.2V75.5002H477.374V65.3002H481.374C483.308 65.3002 484.608 64.8669 485.274 64.0002C486.008 63.0669 486.374 61.7002 486.374 59.9002V51.0002H497.874V65.3002H508.574V75.5002H497.874V107.3H507.774V117.5H498.574Z" fill="white"/>
</svg>
