<svg width="26" height="26" viewBox="0 0 26 26" fill="none" xmlns="http://www.w3.org/2000/svg">
<path d="M12.9999 23.8334C7.01683 23.8334 2.16658 18.9832 2.16658 13.0001C2.16658 7.017 7.01683 2.16675 12.9999 2.16675C18.983 2.16675 23.8333 7.017 23.8333 13.0001C23.8333 18.9832 18.983 23.8334 12.9999 23.8334Z" stroke="black" stroke-width="1.5" stroke-linecap="round" stroke-linejoin="round"/>
<path d="M17.3337 3.25H16.2503C18.3628 9.57667 18.3628 16.4233 16.2503 22.75H17.3337" stroke="black" stroke-width="1.5" stroke-linecap="round" stroke-linejoin="round"/>
<path d="M9.75 3.25C7.6375 9.57667 7.6375 16.4233 9.75 22.75" stroke="black" stroke-width="1.5" stroke-linecap="round" stroke-linejoin="round"/>
<path d="M22.75 17.3333V16.25C16.4233 18.3625 9.57667 18.3625 3.25 16.25V17.3333" stroke="black" stroke-width="1.5" stroke-linecap="round" stroke-linejoin="round"/>
<path d="M22.75 9.74966C16.4233 7.63716 9.57667 7.63716 3.25 9.74966" stroke="black" stroke-width="1.5" stroke-linecap="round" stroke-linejoin="round"/>
</svg>
