<svg width="20" height="20" viewBox="0 0 20 20" fill="none" xmlns="http://www.w3.org/2000/svg">
<path d="M10.0001 6.45768C9.42478 6.45768 8.95842 6.92405 8.95842 7.49935C8.95842 7.84453 8.67859 8.12435 8.33342 8.12435C7.98824 8.12435 7.70842 7.84453 7.70842 7.49935C7.70842 6.2337 8.73443 5.20768 10.0001 5.20768C11.2657 5.20768 12.2917 6.2337 12.2917 7.49935C12.2917 7.95463 12.1583 8.38066 11.9283 8.73821C11.7842 8.96216 11.6157 9.17597 11.4603 9.36904L11.3765 9.4729C11.2477 9.63241 11.1293 9.77891 11.02 9.92916C10.7503 10.2998 10.6251 10.5783 10.6251 10.8327V11.2493C10.6251 11.5945 10.3453 11.8743 10.0001 11.8743C9.6549 11.8743 9.37508 11.5945 9.37508 11.2493V10.8327C9.37508 10.1666 9.70209 9.61583 10.0092 9.19372C10.139 9.01538 10.2812 8.83949 10.4105 8.67954L10.4864 8.58542C10.6408 8.39363 10.7721 8.22489 10.8771 8.06181C10.9813 7.89992 11.0417 7.70765 11.0417 7.49935C11.0417 6.92405 10.5754 6.45768 10.0001 6.45768Z" fill="#B42318"/>
<path d="M9.99357 13.3327C9.53333 13.3327 9.16024 13.7058 9.16024 14.166C9.16024 14.6263 9.53333 14.9993 9.99357 14.9993H10.0011C10.4613 14.9993 10.8344 14.6263 10.8344 14.166C10.8344 13.7058 10.4613 13.3327 10.0011 13.3327H9.99357Z" fill="#B42318"/>
<path fill-rule="evenodd" clip-rule="evenodd" d="M1.04175 9.99935C1.04175 5.0518 5.05253 1.04102 10.0001 1.04102C14.9476 1.04102 18.9584 5.0518 18.9584 9.99935C18.9584 14.9469 14.9476 18.9577 10.0001 18.9577C5.05253 18.9577 1.04175 14.9469 1.04175 9.99935ZM10.0001 2.29102C5.74289 2.29102 2.29175 5.74215 2.29175 9.99935C2.29175 14.2565 5.74289 17.7077 10.0001 17.7077C14.2573 17.7077 17.7084 14.2565 17.7084 9.99935C17.7084 5.74215 14.2573 2.29102 10.0001 2.29102Z" fill="#B42318"/>
</svg>
