<svg width="26" height="26" viewBox="0 0 26 26" fill="none" xmlns="http://www.w3.org/2000/svg">
<path d="M13.0212 3.15259C9.43532 3.15259 6.52115 6.06675 6.52115 9.65259V12.7834C6.52115 13.4443 6.23948 14.4518 5.90365 15.0151L4.65782 17.0843C3.88865 18.3626 4.41949 19.7818 5.82782 20.2584C10.497 21.8184 15.5345 21.8184 20.2037 20.2584C21.5145 19.8251 22.0887 18.2759 21.3737 17.0843L20.1278 15.0151C19.8028 14.4518 19.5212 13.4443 19.5212 12.7834V9.65259C19.5212 6.07759 16.5962 3.15259 13.0212 3.15259Z" stroke="black" stroke-width="1.5" stroke-miterlimit="10" stroke-linecap="round"/>
<path d="M15.0257 3.46705C14.6898 3.36955 14.3432 3.29372 13.9857 3.25038C12.9457 3.12038 11.949 3.19622 11.0173 3.46705C11.3315 2.66538 12.1115 2.10205 13.0215 2.10205C13.9315 2.10205 14.7115 2.66538 15.0257 3.46705Z" stroke="black" stroke-width="1.5" stroke-miterlimit="10" stroke-linecap="round" stroke-linejoin="round"/>
<path d="M16.2712 20.6479C16.2712 22.4354 14.8087 23.8979 13.0212 23.8979C12.1329 23.8979 11.3096 23.5296 10.7246 22.9446C10.1396 22.3596 9.77124 21.5363 9.77124 20.6479" stroke="black" stroke-width="1.5" stroke-miterlimit="10"/>
</svg>
