<svg width="20" height="20" viewBox="0 0 20 20" fill="none" xmlns="http://www.w3.org/2000/svg">
<g clip-path="url(#clip0_152_4518)">
<path d="M10.0001 1.6665C11.0944 1.6665 12.1781 1.88205 13.1891 2.30084C14.2002 2.71963 15.1188 3.33346 15.8926 4.10728C16.6665 4.8811 17.2803 5.79977 17.6991 6.81081C18.1179 7.82186 18.3334 8.90549 18.3334 9.99984M10.0001 1.6665V9.99984M10.0001 1.6665C5.39771 1.6665 1.66675 5.39746 1.66675 9.99984C1.66675 14.6022 5.39771 18.3332 10.0001 18.3332C14.6025 18.3332 18.3334 14.6022 18.3334 9.99984M10.0001 1.6665C14.6025 1.6665 18.3334 5.39747 18.3334 9.99984M18.3334 9.99984L10.0001 9.99984M18.3334 9.99984C18.3334 11.3149 18.0222 12.6113 17.4251 13.7831C16.8281 14.9548 15.9622 15.9687 14.8983 16.7416L10.0001 9.99984" stroke="#A4A7AE" stroke-width="1.67" stroke-linecap="round" stroke-linejoin="round"/>
</g>
<defs>
<clipPath id="clip0_152_4518">
<rect width="20" height="20" fill="white"/>
</clipPath>
</defs>
</svg>
